# xmcd
#
# Track frame offsets: 
#        150
#        11867
#        29684
#        43186
#        60436
#        70027
#        88104
#        105823
#        120597
#        137917
#
# Disc length: 1998 seconds
#
# Revision: 0
# Processed by: cddbd v1.5.2PL0 Copyright (c) Steve Scherf et al.
# Submitted via: ExactAudioCopyFreeDBPlugin 1.0
#
DISCID=8307cc0a
DTITLE=Hewdie - Outsider Blues
DYEAR=2009
DGENRE=Blues
TTITLE0=Blackbird Blackbird
TTITLE1=The Lighthouse Keeper
TTITLE2=Outsider Blues
TTITLE3=Slow Train To Earthquake Town
TTITLE4=I'm Ready
TTITLE5=A Soldier's Story
TTITLE6=Lonesome Traveller
TTITLE7=You Can't Take It With You (When You Go)
TTITLE8=Cold Eyes
TTITLE9=All Souls' Day
EXTD=
EXTT0=
EXTT1=
EXTT2=
EXTT3=
EXTT4=
EXTT5=
EXTT6=
EXTT7=
EXTT8=
EXTT9=
PLAYORDER=
